Coordinates
version=1
nRows=26
nColumns=30
inDegrees=yes

Units are S.I. units (second, meters, Newtons, ...)
Angles are in degrees.

endheader
time	floatyaw	floatroll	floatpitch	floatx	floaty	floatz	pro_sup_l	deviation_l	flexion_l	cmc_flexion_l	cmc_abduction_l	mp_flexion_l	ip_flexion_l	2mcp_flexion_l	2mcp_abduction_l	2pm_flexion_l	2md_flexion_l	3mcp_flexion_l	3mcp_abduction_l	3pm_flexion_l	3md_flexion_l	4mcp_flexion_l	4mcp_abduction_l	4pm_flexion_l	4md_flexion_l	5mcp_flexion_l	5mcp_abduction_l	5pm_flexion_l	5md_flexion_l
0.005000	-2.367547	-3.808797	97.590660	0.061723	-0.113413	0.054617	91.539513	20.608705	-0.679951	-0.889851	37.418660	-23.653039	-39.787503	61.155042	10.335440	60.161206	45.053985	65.780407	7.080574	64.525039	47.162330	63.198050	-4.787902	78.571912	52.544743	49.858247	-13.090204	83.049227	54.596195
0.015000	-2.367547	-3.808797	97.590660	0.061694	-0.111702	0.053819	90.455323	20.712161	-0.766476	-1.291296	37.797143	-24.111901	-40.418531	61.327556	10.118384	59.990303	45.315856	66.183881	7.019888	65.001029	47.620703	64.178405	-4.852713	79.215508	53.151097	50.156608	-12.825010	82.691761	54.017939
0.025000	-2.367547	-3.808797	97.590660	0.061716	-0.109529	0.053123	89.628012	20.948474	-0.928546	-1.713266	38.137047	-24.505495	-40.952100	61.380954	9.888519	59.909788	45.594627	66.331027	6.967828	65.458408	48.110524	64.930598	-4.927757	79.686954	53.710633	50.627224	-12.595125	82.116086	53.161177
0.035000	-2.367547	-3.808797	97.590660	0.061850	-0.107081	0.052605	89.047965	21.307960	-1.093589	-2.165699	38.456557	-24.776015	-41.333471	61.478110	9.662643	59.814184	45.858329	66.398050	6.920895	65.852990	48.621503	65.623049	-5.003183	79.977531	54.239872	51.381415	-12.368696	81.478840	52.171123
0.045000	-2.367547	-3.808797	97.590660	0.062084	-0.104633	0.052297	88.698558	21.742928	-1.193568	-2.614810	38.770593	-24.891178	-41.537848	61.682897	9.443043	59.611753	46.046914	66.478524	6.873530	66.119204	49.086953	66.316358	-5.068653	80.098430	54.706925	52.277979	-12.117809	80.928530	51.215390
0.055000	-2.367547	-3.808797	97.590660	0.062350	-0.102479	0.052166	88.533032	22.188051	-1.190656	-3.020380	39.081257	-24.856237	-41.567909	61.981372	9.230004	59.263861	46.114617	66.600820	6.822617	66.211835	49.433307	66.991932	-5.117324	80.084396	55.066649	53.080643	-11.833701	80.563994	50.436449
0.065000	-2.367547	-3.808797	97.590660	0.062561	-0.100845	0.052134	88.473369	22.580552	-1.087293	-3.357319	39.376904	-24.710853	-41.453248	62.315350	9.029040	58.791660	46.058145	66.754431	6.769050	66.129919	49.624902	67.595899	-5.148056	79.982549	55.299383	53.602956	-11.528208	80.411861	49.913213
0.075000	-2.367547	-3.808797	97.590660	0.062636	-0.099816	0.052116	88.430935	22.873361	-0.914111	-3.617810	39.637934	-24.510614	-41.246250	62.613280	8.851218	58.261384	45.920973	66.911164	6.716875	65.920219	49.683027	68.075689	-5.164932	79.841722	55.430796	53.778991	-11.225917	80.436434	49.651455
0.085000	-2.367547	-3.808797	97.590660	0.062532	-0.099328	0.052061	88.334928	23.040583	-0.705863	-3.803906	39.844928	-24.302823	-41.008719	62.812933	8.708221	57.757978	45.773882	67.037448	6.671080	65.662541	49.672139	68.399469	-5.174572	79.707577	55.521975	53.654509	-10.952832	80.571399	49.602422
0.095000	-2.367547	-3.808797	97.590660	0.062253	-0.099210	0.051965	88.151894	23.078084	-0.484003	-3.922003	39.986590	-24.110873	-40.792544	62.876506	8.605978	57.354377	45.682481	67.101509	6.635359	65.442913	49.664914	68.560773	-5.182850	79.618585	55.638232	53.333036	-10.726640	80.752488	49.693601
0.105000	-2.367547	-3.808797	97.590660	0.061843	-0.099264	0.051864	87.887837	23.001257	-0.257359	-3.982197	40.065079	-23.935805	-40.625241	62.798275	8.540846	57.086401	45.680083	67.079582	6.610920	65.325821	49.709879	68.574888	-5.192756	79.599827	55.818722	52.919111	-10.552166	80.936546	49.854797
0.115000	-2.367547	-3.808797	97.590660	0.061358	-0.099345	0.051800	87.575747	22.839931	-0.035831	-3.998021	40.094995	-23.771811	-40.509115	62.602569	8.500511	56.944515	45.761569	66.961289	6.596679	65.338515	49.820492	68.471477	-5.204166	79.659412	56.065539	52.484434	-10.422971	81.105935	50.032004
0.125000	-2.367547	-3.808797	97.590660	0.060842	-0.099396	0.051802	87.257399	22.630298	0.158778	-3.982907	40.094667	-23.623909	-40.433486	62.330874	8.469140	56.887760	45.899388	66.751644	6.590316	65.474039	49.986094	68.285455	-5.215117	79.793609	56.354070	52.060922	-10.327320	81.265677	50.190904
0.135000	-2.367547	-3.808797	97.590660	0.060316	-0.099440	0.051867	86.967606	22.405729	0.296584	-3.945491	40.074233	-23.515880	-40.390507	62.022394	8.434209	56.873210	46.066991	66.468419	6.589340	65.707833	50.189947	68.048436	-5.223481	79.998340	56.651781	51.651758	-10.255064	81.438378	50.315104
0.145000	-2.367547	-3.808797	97.590660	0.059784	-0.099535	0.051975	86.725394	22.189988	0.355657	-3.888577	40.028552	-23.483260	-40.383174	61.697833	8.391367	56.883424	46.251412	66.136601	6.591654	66.014781	50.419780	67.783849	-5.228099	80.276551	56.931784	51.248579	-10.201839	81.655368	50.402641
0.155000	-2.367547	-3.808797	97.590660	0.059248	-0.099726	0.052091	86.533283	21.995336	0.336916	-3.813395	39.940018	-23.555527	-40.420695	61.356026	8.344681	56.933609	46.448894	65.782849	6.595698	66.375843	50.667908	67.507074	-5.229016	80.633325	57.177183	50.845086	-10.168692	81.941908	50.461593
0.165000	-2.367547	-3.808797	97.590660	0.058721	-0.100008	0.052191	86.383333	21.825133	0.265533	-3.725571	39.789303	-23.738339	-40.506372	60.985389	8.302387	57.053179	46.653202	65.431549	6.600481	66.773165	50.927737	67.228604	-5.227063	81.061846	57.380768	50.441975	-10.158221	82.300651	50.504583
0.175000	-2.367547	-3.808797	97.590660	0.058222	-0.100335	0.052262	86.266002	21.678260	0.177565	-3.637497	39.566628	-24.006742	-40.628482	60.581564	8.271228	57.255314	46.850645	65.102191	6.605678	67.181558	51.193423	66.956639	-5.223277	81.532524	57.545064	50.043966	-10.170419	82.703170	50.542911
0.185000	-2.367547	-3.808797	97.590660	0.057770	-0.100642	0.052306	86.176502	21.552744	0.101613	-3.564806	39.276446	-24.313861	-40.761341	60.157680	8.253070	57.518413	47.026016	64.806997	6.611666	67.566803	51.462686	66.697006	-5.218527	81.996613	57.682506	49.653793	-10.200863	83.097754	50.582811
0.195000	-2.367547	-3.808797	97.590660	0.057373	-0.100879	0.052336	86.115301	21.447227	0.047794	-3.519562	38.933661	-24.610662	-40.875192	59.739408	8.245369	57.794813	47.171601	64.548665	6.619273	67.895721	51.737570	66.451204	-5.213452	82.405273	57.811843	49.268257	-10.241683	83.432449	50.625877
0.205000	-2.367547	-3.808797	97.590660	0.057026	-0.101031	0.052362	86.083943	21.360287	0.009391	-3.505064	38.555399	-24.865796	-40.947218	59.349649	8.244162	58.040083	47.289148	64.319795	6.629237	68.152534	52.019458	66.215263	-5.208627	82.732729	57.949010	48.878863	-10.284020	83.680690	50.672640
0.215000	-2.367547	-3.808797	97.590660	0.056717	-0.101118	0.052393	86.080478	21.288662	-0.026892	-3.515474	38.154785	-25.074568	-40.966818	58.996041	8.246960	58.239619	47.382880	64.106182	6.641634	68.348896	52.300996	65.981703	-5.204741	82.987916	58.096711	48.476947	-10.320634	83.852591	50.725537
0.225000	-2.367547	-3.808797	97.590660	0.056432	-0.101176	0.052429	86.098091	21.226062	-0.070481	-3.539683	37.740866	-25.253226	-40.934513	58.670972	8.253757	58.412917	47.450739	63.894089	6.655695	68.518240	52.562464	65.744488	-5.202624	83.206549	58.240490	48.060961	-10.347780	83.983959	50.788229
0.235000	-2.367547	-3.808797	97.590660	0.056169	-0.101238	0.052473	86.127206	21.163981	-0.122269	-3.566304	37.323475	-25.423889	-40.858882	58.362630	8.266188	58.594857	47.482551	63.678322	6.670125	68.696688	52.778015	65.504299	-5.203058	83.429056	58.355820	47.641803	-10.365830	84.111421	50.861796
0.245000	-2.367547	-3.808797	97.590660	0.055929	-0.101318	0.052524	86.158869	21.094510	-0.176388	-3.586991	36.917806	-25.600108	-40.755261	58.067221	8.285991	58.809889	47.467239	63.466285	6.683673	68.902842	52.929289	65.270619	-5.206482	83.678495	58.422779	47.241808	-10.378309	84.251881	50.941238
0.255000	-2.367547	-3.808797	97.590660	0.055718	-0.101412	0.052584	86.187048	21.013574	-0.225254	-3.597480	36.543918	-25.780824	-40.645358	57.793100	8.313799	59.057061	47.403520	63.274982	6.695563	69.129197	53.017406	65.058719	-5.212769	83.950994	58.439038	46.886134	-10.389723	84.399531	51.015487
